<svg xmlns="http://www.w3.org/2000/svg" version="1.1" xmlns:xlink="http://www.w3.org/1999/xlink" xmlns:svgjs="http://svgjs.dev/svgjs" width="1440" height="560" preserveAspectRatio="none" viewBox="0 0 1440 560"><g mask="url(&quot;#SvgjsMask1015&quot;)" fill="none"><path d="M1671.73 185.37C1562.78 186.83 1471.78 316.46 1255.35 314.17 1038.92 311.88 975.29-26.79 838.97-51.47" stroke="rgba(255, 239, 220, 0.74)" stroke-width="2"></path><path d="M1469.68 213.03C1298.73 217.89 1083.12 473.29 835.95 470.63 588.78 467.97 654.33 15.31 519.08-58.91" stroke="rgba(255, 239, 220, 0.74)" stroke-width="2"></path><path d="M1519.01 400.36C1349.48 396.63 1218.55 170.93 882.79 165.16 547.03 159.39 412.92-27.75 246.57-29.92" stroke="rgba(255, 239, 220, 0.74)" stroke-width="2"></path><path d="M1527.42 42.6C1381.71 47.01 1260.31 266.86 989.04 266.6 717.76 266.34 611.53-75.69 450.65-91.55" stroke="rgba(255, 239, 220, 0.74)" stroke-width="2"></path><path d="M1698.61 79.02C1570.55 80.37 1456.24 219.74 1205.83 219.02 955.41 218.3 859.14-86.24 713.04-99.73" stroke="rgba(255, 239, 220, 0.74)" stroke-width="2"></path></g><defs><mask id="SvgjsMask1015"><rect width="1440" height="560" fill="#ffffff"></rect></mask></defs></svg>