<svg xmlns="http://www.w3.org/2000/svg" version="1.1" xmlns:xlink="http://www.w3.org/1999/xlink" xmlns:svgjs="http://svgjs.dev/svgjs" width="1440" height="560" preserveAspectRatio="none" viewBox="0 0 1440 560"><g mask="url(&quot;#SvgjsMask1004&quot;)" fill="none"><path d="M624.14-11.85C473.23 58.02 453.83 534.49 253.39 540.42 52.95 546.35-6.6 304.91-117.36 294.02" stroke="rgba(138, 98, 50, 0.58)" stroke-width="2"></path><path d="M1284.38-35.22C1123.56 10.37 1084.28 450.51 836.48 461.21 588.69 471.91 612.53 391.21 388.59 391.21 164.64 391.21 54.02 461-59.31 461.21" stroke="rgba(138, 98, 50, 0.58)" stroke-width="2"></path><path d="M1240.12-92.99C1119.87-91.53 1010.29 44.74 779.22 44.79 548.15 44.84 548.77-25.21 318.33-25.21 87.88-25.21-26.02 44.59-142.57 44.79" stroke="rgba(138, 98, 50, 0.58)" stroke-width="2"></path><path d="M933.75-8.56C797.4-0.63 714.1 240.5 452.04 249.17 189.99 257.84 96.97 404.01-29.66 405.97" stroke="rgba(138, 98, 50, 0.58)" stroke-width="2"></path><path d="M785.08-66.27C634.16-14.74 595.26 425.47 383.21 429.1 171.17 432.73 96.13 212.5-18.65 205.1" stroke="rgba(138, 98, 50, 0.58)" stroke-width="2"></path></g><defs><mask id="SvgjsMask1004"><rect width="1440" height="560" fill="#ffffff"></rect></mask></defs></svg>